# xmcd
#
# Track frame offsets:
#	150
#	13882
#	27591
#	47841
#	62044
#	81233
#	101050
#	173884
#	196147
#	217401
#	234756
#
# Disc length: 3585 seconds
#
# Revision: 0
# Processed by: cddbd v1.5.2PL0 Copyright (c) Steve Scherf et al.
# Submitted via: EasyCDDAExtractor 16.0.9.1
#
DISCID=9a0dff0b
DTITLE=Rodrigo Romaní - As arpas de Breogán
DYEAR=2012
DGENRE=
TTITLE0=Terra de Melide  
TTITLE1=Non te Fies 
TTITLE2=Rosa de Abril 
TTITLE3=O Feitizo de Añón 
TTITLE4=Rumba para Susi  
TTITLE5=Mi morena  
TTITLE6=As Arpas de Breogan. Suite en Mi bemol  
TTITLE7=Lila 
TTITLE8=Rosa Desvairada  
TTITLE9=Parolando con Moxenas 
TTITLE10=Suite en Re para duas arpas 
EXTD=
EXTT0=
EXTT1=
EXTT2=
EXTT3=
EXTT4=
EXTT5=
EXTT6=
EXTT7=
EXTT8=
EXTT9=
EXTT10=
PLAYORDER=
